<svg width="40" height="40" viewBox="0 0 40 40" fill="none" xmlns="http://www.w3.org/2000/svg">
<g id="thumbs-up">
<path id="Vector" d="M11.6667 36.6666H6.66668C5.78262 36.6666 4.93478 36.3155 4.30965 35.6903C3.68453 35.0652 3.33334 34.2174 3.33334 33.3333V21.6666C3.33334 20.7826 3.68453 19.9347 4.30965 19.3096C4.93478 18.6845 5.78262 18.3333 6.66668 18.3333H11.6667M23.3333 15V8.33331C23.3333 7.00723 22.8066 5.73546 21.8689 4.79778C20.9312 3.8601 19.6594 3.33331 18.3333 3.33331L11.6667 18.3333V36.6666H30.4667C31.2706 36.6757 32.0506 36.394 32.6632 35.8733C33.2757 35.3527 33.6795 34.6282 33.8 33.8333L36.1 18.8333C36.1725 18.3556 36.1403 17.8678 36.0056 17.4037C35.8708 16.9397 35.6368 16.5105 35.3198 16.1458C35.0027 15.7812 34.6101 15.4899 34.1693 15.292C33.7284 15.0942 33.2499 14.9945 32.7667 15H23.3333Z" stroke="#68BAE8" stroke-width="3" stroke-linecap="round" stroke-linejoin="round"/>
</g>
</svg>
